<?xml version="1.0" encoding="utf-8"?>
<!-- Generator: Adobe Illustrator 26.5.0, SVG Export Plug-In . SVG Version: 6.00 Build 0)  -->
<!DOCTYPE svg PUBLIC "-//W3C//DTD SVG 1.1//EN" "http://www.w3.org/Graphics/SVG/1.1/DTD/svg11.dtd">
<svg version="1.1" id="Layer_1" xmlns="http://www.w3.org/2000/svg" xmlns:xlink="http://www.w3.org/1999/xlink" x="0px" y="0px"
	 viewBox="0 0 132.7 291.9" style="enable-background:new 0 0 132.7 291.9;" xml:space="preserve">
<g>
	<path id="1" d="M67.9,291.9c-17.3-0.4-32.8-4.1-46.6-13.4c-8.1-5.4-14.7-12.1-18.6-21.3c-3.4-8-3.3-16.1-0.7-24.2c2.6-8.1,5.3-16,6.5-24.5
		c1-7.5,0.4-14.8-2.6-21.6C-1.9,169.3,0.2,152,6,134.6c4-11.9,10.7-22.4,18-32.4c14.5-20,28-40.6,39.1-62.8
		c6.4-12.8,15-24.2,27.4-32c9.6-6.1,20.1-8.7,31.5-6.7c0.8,0.1,1.6,0.3,2.4,0.5c0.7,0.2,1.8,0.2,1.8,1.2c0,0.8-1,0.8-1.7,1.1
		c-17.4,7.9-27.6,21.3-31.1,40c-0.4,2-0.4,4,0,6c1.7,10.1-0.4,19.4-6.4,27.8c-2.2,3.1-4,6.5-5.3,10.2c-2,5.6-1.2,11.2,0.4,16.6
		c2.6,8.5,2.8,16.7-0.3,25.2c-2.9,8,0.4,14.1,8.4,16.9c2.2,0.7,4.4,1.4,6.8,1.4c2.3,0.1,2.8,0.9,1.8,3c-1.5,3.1-2.6,6.3-3.5,9.6
		c-4.3,14.4-0.2,26.6,9.7,37.3c5.9,6.4,12.7,11.8,18.4,18.3c4.6,5.2,8.2,10.9,9.1,18.1c1,8.3-1.6,15.7-5.3,22.9
		C114.5,281,93.6,291.2,67.9,291.9z"/>
	<path d="M112.6,119.6c4.6,8,8.2,16.2,11.2,24.8c2.3,6.7,4.1,13.5,4.7,20.5c0.3,3.5-0.1,6.8-1.3,10.1c-2.1,5.6-6.9,8.4-12.6,7.5
		c-6.2-0.9-10.2-5-10.7-10.9c-0.3-3.7,0.2-7.3,2.2-10.5c5.2-8.3,6.9-17.5,6.9-27.1C112.9,129.3,112.9,124.5,112.6,119.6z"/>
</g>
</svg>
