<?xml version="1.0" encoding="UTF-8"?>
<svg id="uuid-98b70714-e453-42f2-922f-619c1d03a3ba" data-name="Layer 5" xmlns="http://www.w3.org/2000/svg" width="119.58" height="135.31" viewBox="0 0 119.58 135.31">
  <path d="M116.01,30.09c-6.48-3.73-9.52-9.35-14.66-14.42-2.83-2.79-6.17-4.57-10.07-5.25-3.76-.66-7.64,.08-11.34-.85-7.49-1.89-13.19-7.5-21.13-8.43-6.37-.75-12.08,1.42-16.18,6.02-.97,.57-1.84,1.46-2.5,2.75-1.01,1.98-11.53,22.51-14.27,27.84-.22,0-.46,0-.77,.03-1.06,.09-2.04,.31-3.01,.72-1.98,.85-3.43,2.4-4.54,4.21-3.02,4.92-5.26,10.52-7.82,15.7C5.4,67.19-.75,76.47,.08,86.65c.87,10.7,6.19,21.36,9.78,31.38,1.57,4.39,2.66,9.97,5.66,13.62,3.21,3.91,8.61,3.92,13.28,4.37,4.82,.47,9.67,.43,14.42-.61,4.77-1.05,9.21-3.56,14.11-3.94,4.16-.33,7.92-.44,11-3.72,3.03-3.22,3.71-7.56,4.16-11.78,1.02-9.71,4.84-18.34,9.36-26.9,2.54-4.8,4.98-9.87,8.24-14.23,2.97-3.96,7.04-6.57,10.91-9.55,9.21-7.1,13.82-16.81,18.23-27.29,1.17-2.79-.78-6.51-3.22-7.91Z" fill="white"/>
</svg>