<?xml version="1.0" encoding="UTF-8"?>
<svg id="uuid-a9161a2b-9b98-4256-ad82-54dc0a416f5a" data-name="Layer 5" xmlns="http://www.w3.org/2000/svg" width="83.94" height="161.37" viewBox="0 0 83.94 161.37">
  <path d="M82.82,30.04c-4.41-7.19-18.45-6.42-25.72-7.49-4.69-.69-9.56-1.27-12.67-5.16-3.32-4.16-6.05-9-8.82-13.54-3.97-6.49-14.12-.71-10.5,5.8-2.48,4.33-5.38,8.33-8.91,11.93-3.97,4.05-8.67,7.33-11.99,12C.86,38.26,.22,43.41,.16,49.02c-.09,7.22-.12,14.44-.14,21.66-.08,28.56,.28,57.11,1.05,85.66,.1,3.8,3.76,6.94,7.6,5.79,8.52-2.57,18.56-1.2,27.36-1.19,10.15,.02,20.58,.72,30.7-.01,9.73-.71,9.1-10.8,7.76-18.07-1.61-8.78-7.23-16.84-11.41-24.58-1.05-1.95-2.1-3.9-3.15-5.84-.94-1.74-2.8-3.94-3.15-5.84-.59-3.23,1.83-7.45,1.81-11.17-.02-4.11-1.1-8.11-.61-12.24,.55-4.55,2.05-9.43,3.76-13.66,1.69-4.17,4.53-5.19,8.57-6.51,4.24-1.38,6.16-3.33,7.64-7.6,1.51-4.39,2.74-8.89,4.11-13.33,1.2-3.91,3.13-8.2,.76-12.05Z" fill="white"/>
</svg>