<?xml version="1.0" encoding="UTF-8"?>
<svg id="uuid-7a63b8cb-b4a3-4e05-a615-e9f180bb55e5" data-name="Layer 5" xmlns="http://www.w3.org/2000/svg" width="176.48" height="132.76" viewBox="0 0 176.48 132.76">
  <path d="M175.28,20.93c-2.38-8.3-9.1-12.19-17.37-12.86-19.59-1.59-39.6-1.03-59.25-1.5-.15,0-.3,0-.44,.01-1.05-.9-2.41-1.51-4.08-1.67-4.27-.39-7.49-1.74-11.48-3.01-3.61-1.15-7.55-.97-11.29-.71-9.37,.66-16.72,3.62-24.92,7.89-3.62,1.89-7.42,3.25-11.42,4.08-4.43,.92-8.79,.45-13.24,.83-8.6,.74-13.95,7.89-19.7,13.55-3.06,3.01-2.42,6.82-.22,9.32,.28,.64,.67,1.27,1.19,1.87,2.43,2.83,4.25,6.1,5.28,9.7,1.24,4.32,1.06,8.92,2.37,13.22,2.33,7.68,8.32,13.61,13.59,19.41,5.71,6.29,12.26,11.4,18.45,17.18,6.58,6.15,11.52,13.93,16.8,21.16,2.61,3.58,5.06,7.7,8.06,10.97,3.19,3.47,6.53,3.89,11.01,2.95,9.42-1.97,18.78-4.6,28.12-6.95,7-1.76,14.34-4.04,19.25-9.65,5.43-6.2,5.77-13.82,6.97-21.56,1.33-8.61,6.49-14.34,13.03-19.72,8.22-6.76,17.06-12.87,25.59-19.24,3.31-2.47,4.19-5.77,2.51-9.58-.6-1.36,.83-4.32,1.12-5.65,.51-2.27,.91-4.57,1.11-6.89,.38-4.31,.17-8.98-1.03-13.16Z" fill="white"/>
</svg>