<?xml version="1.0" encoding="UTF-8"?>
<svg id="uuid-992d1b3b-9274-4f1a-85e0-9e9afe109c3f" data-name="Layer 5" xmlns="http://www.w3.org/2000/svg" width="93.26" height="116.76" viewBox="0 0 93.26 116.76">
  <path d="M91.35,72.89c-1.86-4.43-3.64-8.92-5.04-13.52-2.72-8.95-2.09-18.16-2.03-27.4,.03-4.53,.05-9.07,.08-13.6,.03-4.27,.87-9.45-.29-13.57-.42-1.48-1.62-2.77-3.14-3.14-5.27-1.29-11.73-.3-17.15-.29-6.07,0-12.13,.02-18.2,.03-5.11,0-10.62-.5-15.58,1-4.99,1.5-9.11,4.91-14.04,6.51-.7,.23-1.28,.57-1.73,.99-2.52,.17-5.2,2.35-4.73,5.63,.89,6.15,2.87,12.08,3.77,18.23,.93,6.36,.97,12.9,.3,19.28-1.33,12.64-5.92,24.66-12.93,35.21-1.16,1.75-.56,3.99,.7,5.45,4.75,5.52,11.22,8.46,17.92,10.94,3.9,1.45,8.07,2.57,11.7,4.64,3.27,1.86,5.02,5.17,8.17,7.03,7.6,4.48,14.3-2.51,20.39-6.07,6.85-4.01,15.56-4.8,21.85-9.6,5.26-4.02,9.85-11.45,11.55-17.84,.95-3.57-.2-6.67-1.56-9.91Z" fill="white"/>
</svg>