<?xml version="1.0" encoding="UTF-8"?>
<svg id="uuid-8804f6e9-5a95-451e-a3ee-a7d663ea319f" data-name="Layer 5" xmlns="http://www.w3.org/2000/svg" width="188.12" height="93.46" viewBox="0 0 188.12 93.46">
  <path d="M184.72,12.94C163.33,.89,139.92,2.62,116.21,2.63c-21.41,.01-42.83,.02-64.24,.03-1.51-1.42-3.67-2.12-6.3-1.34-1.46,.44-2.92,.89-4.37,1.34-.19,0-.37,0-.56,0-1.86,0-3.32,.6-4.42,1.55-7.73,2.46-15.42,5.07-23.03,7.88-4.59,1.69-10.12,2.96-12.36,7.76-2.19,4.72-.3,9.69,3.46,12.94,1.73,1.49,3.89,2.31,5.57,3.84,1.56,1.41,2.25,3.07,3.18,4.9,2.5,4.93,6.07,6.35,11.4,5.93,1.91-.15,4.38-.79,6.02,.29,1.4,.92,2.19,4.02,2.98,5.5,2.28,4.28,5.56,7.64,9.39,10.55,7.93,6.03,16.66,10.67,24.25,17.23,3.77,3.26,7.07,6.97,10.75,10.31,3.93,3.57,8.29,3.73,13.17,2.2,9.34-2.91,17.97-7.92,25.33-14.34,3.71-3.24,6.76-6.98,9.97-10.7,2.67-3.09,6.09-7.29,10.62-7.03,2.73,.16,5.3,1.25,8.12,1.16,2.76-.09,5.47-.96,7.94-2.14,4.87-2.33,9.09-6.2,12.97-9.89,8.53-8.11,15.67-17.7,21.18-28.09,1.75-3.3,.9-7.66-2.51-9.58Z" fill="white"/>
</svg>