<?xml version="1.0" encoding="UTF-8"?>
<svg id="uuid-04fdc5d2-e3ac-43e6-96fa-56a97fbdd0a4" data-name="Layer 5" xmlns="http://www.w3.org/2000/svg" width="145.59" height="105.15" viewBox="0 0 145.59 105.15">
  <path d="M143.7,58.58c-2.22-3.38-5.43-6.35-8.47-8.99-12.26-10.66-27.9-17.16-38.97-29.2-5.93-6.45-10.27-13.39-18.73-16.86C69.1,.07,59.65,.43,51.02,2.99,33.2,8.28,16.64,19.8,2.38,31.41c-3.08,2.5-2.87,5.81-1.08,8.25,.12,.47,.28,.95,.5,1.43,2.23,4.84,3.94,11.08,8.13,14.6,4.3,3.6,11.1,5.02,16.25,7.09,11.48,4.62,22.74,9.75,33.99,14.9,22.43,10.26,44.88,20.64,68.41,28.2,3.54,1.14,7.72-1.33,8.61-4.89,2.52-10.09,5.16-20.15,7.56-30.27,1.04-4.42,1.57-8.17-1.03-12.13Z" fill="white"/>
</svg>