<?xml version="1.0" encoding="UTF-8"?>
<svg id="uuid-d3ed68cf-14b1-4707-9f5e-eea2abeaf6ab" data-name="Layer 5" xmlns="http://www.w3.org/2000/svg" width="149.6" height="170.89" viewBox="0 0 149.6 170.89">
  <path d="M143.35,141.04c-1.83-3.4-3.82-6.18-4.06-10.17-.24-3.94,.62-7.88,1.25-11.74,2.96-18.3,4.86-36.78,5.55-55.3,.34-9.11,.39-18.24,.16-27.35-.12-4.56-.3-9.11-.56-13.67-.21-3.7,.21-8.22-1.72-11.52-1.92-3.29-5.09-4.04-8.65-4.15-4.82-.15-9.68,.08-14.5,.12-9.03,.08-18.07,.14-27.1,0-20.6-.31-41.16-1.67-61.32-6.07-7.52-1.64-11.35,8.02-6.75,12.03,0,.04,.01,.08,.02,.13,2.24,9.32,.43,18.92,.49,28.37,.03,4.7,.44,9.55,1.76,14.08,.63,2.16,1.52,4.26,2.47,6.3,.97,2.08,3.14,4.88,3.21,7.29,.08,2.86-4.18,5.65-5.79,7.95-2.89,4.12-4.67,9.03-7.14,13.42-2.5,4.44-5.27,8.74-8.31,12.83-2.95,3.96-6.55,7.51-9.17,11.71-4.69,7.52-5.38,19.93,6.03,21.05,4.4,.43,8.85-.35,13.29,.15,5.32,.6,10.49,2.2,15.78,3.04,4.73,.75,9.47,1.07,14.2,.14,5.01-.99,9.44-3.86,14.66-3.75,9.02,.2,17.44,5.06,26.3,6.46,2.68,.42,5.33,.45,8.01,.69,2.48,.22,2.64,1.35,3.67,3.5,1.82,3.78,3.75,7.65,6.73,10.67,3.82,3.87,8.22,5.2,13.49,5.64,5.4,.46,8.54,3.39,12.3,7.09,4.22,4.15,12.11,1.21,11.95-4.95-.22-8.43-2.24-16.52-6.25-23.97Z" fill="white"/>
</svg>