<?xml version="1.0" encoding="UTF-8"?>
<svg id="uuid-79cb4cd3-83a1-4d71-b550-5a41414761f7" data-name="Layer 5" xmlns="http://www.w3.org/2000/svg" width="106.01" height="147.19" viewBox="0 0 106.01 147.19">
  <path d="M104.36,21.41c.38-3.28-1.5-6.62-5.68-6.17-9.74,1.06-19.65-2.99-29.46-3.33-4.58-.16-9.17-.1-13.75-.43-2.27-.17-4.5-.46-6.71-.99-1.01-.24-6.06-1.23-6.38-2.27-.84-2.79-3.02-4.07-5.29-4.19-.48-4.13-7.08-4.04-6.96,.35,.1,3.34-4.75,8.14-6.71,10.56-2.27,2.81-4.66,5.51-7.11,8.15-4.92,5.3-10.13,10.33-15.34,15.35-1.48,1.43-1.15,3.48,0,4.95,4.09,5.21,4.08,14.16,5.59,20.4,1.64,6.83,3.4,14,6.36,20.4,2.67,5.77,7.85,9.55,10.66,15.27,2.61,5.32,5.49,9.53,10.11,13.31,4.26,3.49,9.12,6.27,13.09,10.1,3.47,3.35,4.41,9.1,8.26,11.81,2.19,1.54,4.62,1.39,7.15,1.39,4.2,0,5.84,1.95,9.04,4.22,5.46,3.87,11.72,6.43,18.24,7.81,2.81,.6,4.58-1.95,4.35-4.11,.66-.84,1.12-1.89,1.27-3.15,1.26-10.3,2.52-20.6,3.78-30.9,1.16-9.48,3.26-19.35,2.97-28.91-.27-8.95-3.74-17.27-3.65-26.31,.1-9.3,2.57-18.28,7.02-26.42,1.44-2.65,.74-5.18-.86-6.88Z" fill="white"/>
</svg>