<?xml version="1.0" encoding="UTF-8"?>
<svg id="uuid-252784f5-ec38-4024-87e6-8e3b57ad5048" data-name="Layer 5" xmlns="http://www.w3.org/2000/svg" width="163.96" height="144.59" viewBox="0 0 163.96 144.59">
  <path d="M163.92,129.62c-.29-5.06-1.5-9.49-5.45-12.88-2.18-1.86-4.76-2.94-6.27-5.47-1.34-2.23-1.83-4.97-2.12-7.52-.77-6.69-.32-13.6-.35-20.33-.04-8.31-.22-16.64,.12-24.94,.63-15.47,4.83-30.49,2.45-45.99-.37-2.41-3.4-4.59-5.79-4.4-21.84,1.68-43.78,1.7-65.62-.1-10.82-.89-21.58-2.26-32.29-4.01C38.16,2.28,27.71,.56,17.1,1.1c-1.63,.08-2.91,.69-3.85,1.59-1.04,.22-2.06,.83-2.96,1.93C2.42,14.22-4.37,25.99,3.5,37.82c2.99,4.5,7.18,8.17,11.01,11.94,4.92,4.84,9.86,9.66,14.66,14.62,8.79,9.08,17.13,18.63,23.58,29.55,6.05,10.24,10.39,21.86,19.45,29.97,4.12,3.69,8.93,6.62,14.34,7.96,6.02,1.49,12.3,1.06,18.35,2.29,12.16,2.46,23.04,9.13,35.37,10.97,11.78,1.76,24.5-1.08,23.68-15.5Z" fill="white"/>
</svg>