<?xml version="1.0" encoding="UTF-8"?>
<svg id="uuid-0ed64a75-6f3f-484b-862a-ef498fd87263" data-name="Layer 5" xmlns="http://www.w3.org/2000/svg" width="127.02" height="169.68" viewBox="0 0 127.02 169.68">
  <path d="M122.02,43.52c-8.59-1.86-17.18-3.72-25.77-5.59-3.31-.72-7.33-1.14-10.15-3.21-2.68-1.97-4.26-5.38-5.93-8.14C72.57,13.98,60.99,4.84,46.62,1.24c-5.51-1.38-9.03,3.48-8.68,7.81-.62,.34-1.23,.81-1.8,1.43-9.74,10.4-12.03,24.05-17.09,36.85-2.58,6.52-6.71,10.59-10.91,15.97-2.45,3.13-3.78,6.54-3.99,10.53-.1,1.86,.36,3.81,.12,5.64-.24,1.82-1.14,2.99-2.01,4.61-3.97,7.43-2.49,14.26,2.84,20.57,4.69,5.54,10.66,11.21,17.2,14.48,3.52,1.77,7.11,2.71,11.01,3.17,3.32,.39,5.43,.21,7.3,3.12,3.41,5.29,4.89,11.11,10.75,14.47,3.56,2.04,7.7,2.58,11.45,4.16,3.91,1.64,7.59,3.99,10.97,6.53,7.13,5.35,13.37,11.92,19.76,18.1,3.99,3.86,9.94,1.83,11.7-3.09,3.24-9.07,2.2-18.57,2.08-28-.12-9.6,.44-19.25,1.84-28.75,2.81-19.08,8.57-37.69,17.04-55.01,1.87-3.82,.52-9.26-4.18-10.28Z" fill="white"/>
</svg>