<?xml version="1.0" encoding="UTF-8"?>
<svg id="uuid-32443e3e-ec16-4785-80bf-8f4f60909f59" data-name="Layer 5" xmlns="http://www.w3.org/2000/svg" width="149.57" height="132.92" viewBox="0 0 149.57 132.92">
  <path d="M148.55,78.52c-4.99-6.65-12.12-9.09-18.81-13.56-5.81-3.87-10.99-8.97-14.97-14.7-4.68-6.73-7.71-14.08-9.51-22.06-.93-4.12-1.5-8.27-1.98-12.45-.46-4.09-.75-7.89-4.11-10.71C93.17-.02,82.06,.57,74.9,2.02c-8.5,1.72-16.84,5.1-25.08,7.75C33.83,14.91,17.64,19.72,4.59,30.78c-3.7,1.44-6.24,5.46-3.34,9.61,21.06,30.13,41.49,60.86,63.96,89.98,1.78,2.31,4.78,4.38,7.91,3.22,27.35-10.19,47.63-31.67,72.92-45.49,3.04-1.66,4.74-6.61,2.51-9.58Z" fill="white"/>
</svg>