<?xml version="1.0" encoding="UTF-8"?>
<svg id="uuid-f2efce8d-00d2-47a1-8730-169baff10692" data-name="Layer 5" xmlns="http://www.w3.org/2000/svg" width="166.35" height="108.1" viewBox="0 0 166.35 108.1">
  <path d="M159.52,68.69c-7.2-.28-13.33-6.56-18.37-11.07-6.17-5.53-11.65-11.57-17.27-17.63-6.13-6.6-12.49-7.42-21.12-7.3-7.92,.11-13.73-3.88-19.95-8.36-13.4-9.66-27.63-15.74-43.56-20.04-7.33-1.98-16.01-5.85-22.83-.79C9.97,8.28,4.8,15.31,.94,22.27c-2.74,4.94,.98,9.55,5.21,10.38,6.14,5.74,11.92,11.86,17.12,18.47,4.53,5.75,7.85,13.59,13.46,18.29,3.24,2.71,7.01,3.24,11.03,3.91,4.45,.74,8.85,1.78,13.17,3.09,7.55,2.29,14.79,5.37,21.86,8.86,7.19,3.55,14.18,7.48,21.15,11.43,3.74,2.12,7.48,4.26,11.23,6.36,3.43,1.92,7.09,4.56,10.88,5.67,7.31,2.15,14.58-5.62,19.75-9.84,6.76-5.52,12.96-11.65,18.67-18.25,3.97-4.6,1.34-11.7-4.95-11.95Z" fill="white"/>
</svg>