<?xml version="1.0" encoding="UTF-8"?>
<svg id="uuid-68570b96-e53d-4aed-8571-2b2933541f4b" data-name="Layer 5" xmlns="http://www.w3.org/2000/svg" width="155.14" height="83.5" viewBox="0 0 155.14 83.5">
  <path d="M153.69,46.76c-1.58-4.83-4.7-8.74-7.55-12.86-5.97-8.62-10.87-17.93-14.52-27.75-1.02-2.74-3.53-5.38-6.75-5.14C85.35,3.93,45.8,6.97,6.72,13.77c-3.46,.6-4.99,3.03-5.05,5.67-.72,1.31-1.02,2.85-.9,4.36-.96,1.82-1.13,4.08,.11,6.42,2.08,3.9,5.24,7.13,7.22,11.06,2.14,4.25,.1,5.37-2.02,8.9-5.46,9.07,3.1,14.66,10.52,17.6,7.82,3.1,16.41,4.12,24.07,7.61,7.51,3.42,13.93,11.3,23.08,8.53,8.26-2.5,13.08-11.85,20.4-16.18,7.54-4.46,17.42-3.49,25.87-3.43,8.97,.06,18.18,.62,26.6,3.99,3.75,1.5,7.18,4.17,11.46,3.22,4.5-1,6.36-4.89,6.77-9.06,.5-5.16,.47-10.73-1.16-15.7Z" fill="white"/>
</svg>