<?xml version="1.0" encoding="utf-8"?>
<!-- Generator: Adobe Illustrator 26.5.0, SVG Export Plug-In . SVG Version: 6.00 Build 0)  -->
<!DOCTYPE svg PUBLIC "-//W3C//DTD SVG 1.1//EN" "http://www.w3.org/Graphics/SVG/1.1/DTD/svg11.dtd">
<svg version="1.1" id="Layer_1" xmlns="http://www.w3.org/2000/svg" xmlns:xlink="http://www.w3.org/1999/xlink" x="0px" y="0px"
	 viewBox="0 0 152.7 311.2" style="enable-background:new 0 0 152.7 311.2;" xml:space="preserve">
<g>
	<path id="1" d="M56.9,148.6c3.1-6.6,4.4-13.7,4.9-20.7c0.9-11.4,0.6-22.8-3.2-34c-3.9-11.2-7.8-22.5-7.6-34.8c0.2-16.8,6.8-31,17.7-43.2
		c4.7-5.3,9.5-10.7,15.6-14.6c1-0.7,2.3-1.9,3.6-0.9c1.3,1.2,0,2.5-0.5,3.6c-3.3,6.5-6.1,13.1-7.1,20.6c-0.7,5.5,0.3,10.6,1.3,15.7
		c3.4,18.5,12.8,34.4,22.3,50.2c9.8,16.2,19.5,32.4,23.5,51.3c3.5,16.5,3.2,32.9,0.9,49.5c-1.5,11.4-5.4,22.1-9.4,34.2
		c5-7.2,10.4-12.4,14.4-18.7c6.6-10.5,8.8-22,9.9-34c0.1-1.4-0.7-3.6,1-3.9c2-0.4,2.4,1.8,2.9,3.4c4.6,16.9,6.8,34,5,51.6
		c-1.7,17.7-6.3,34.3-15.8,49.2c-11.9,18.7-28.3,31.9-50.1,36.7c-18.9,4.1-36.5-1.2-51.4-12.8C12.1,279.5,0.5,256,0,227
		c-0.4-20.4,6.7-38.3,16.2-55.7c5-9.2,10.7-17.9,15.2-27.4c5.2-10.9,4.5-21.9,1.1-33c-0.7-2.2-1.2-4.5-1.9-6.7
		c-0.4-1.3-0.8-2.9,0.4-3.7c1.4-1,2.5,0.5,3.3,1.4C45.9,115.4,58.9,128.4,56.9,148.6z" fill="white" stroke="black"/>
</g>
</svg>
