<?xml version="1.0" encoding="utf-8"?>
<!-- Generator: Adobe Illustrator 26.5.0, SVG Export Plug-In . SVG Version: 6.00 Build 0)  -->
<!DOCTYPE svg PUBLIC "-//W3C//DTD SVG 1.1//EN" "http://www.w3.org/Graphics/SVG/1.1/DTD/svg11.dtd">
<svg version="1.1" id="Layer_1" xmlns="http://www.w3.org/2000/svg" xmlns:xlink="http://www.w3.org/1999/xlink" x="0px" y="0px"
	 viewBox="0 0 121.2 318.4" style="enable-background:new 0 0 121.2 318.4;" xml:space="preserve">
<g>
	<path id="1" d="M14.1,186.5c4.9-2.7,9.6-4.8,15.1-3.8c4.1,0.8,6.6,3.5,8.2,7.2c0.7,1.6,1.2,3.2,1.9,4.8c0.7,1.6,1.8,3.1,3.3,4.1
		c3.3,2.2,7.2,0.8,8.9-3.2c1.2-2.8,1.1-5.6,0.8-8.6c-1-8.7-5.2-16.1-9.6-23.4c-3.8-6.2-6.4-12.8-7.5-19.9c-1.2-8-0.4-15.8,2.7-23.3
		c3.9-9.6,9.8-17.7,17.3-24.9c2-1.9,4.2-3.5,5.9-5.8c2.8-3.9,4-8.5,4.6-13.1c0.8-5.9,0.7-11.8-0.8-17.6c-0.7-2.7-1.4-5.3-2.9-7.7
		c0.7-0.2,0.9,0.3,1,0.6c7.2,10.1,11.8,21.2,12.6,33.8c0.8,12.5-3,23.6-10,33.8c-4,5.8-6.8,12.1-6.6,19.4c0.1,2.9,0.7,5.7,2.1,8.4
		c1.1,2,2.7,3.5,4.6,4.7c3.3,1.9,7.6,0.3,9.5-3.5c1.4-2.8,1.9-5.7,2.1-8.8c0.4-6.5-0.3-12.9-1.9-19.1c-0.1-0.3-0.2-0.6,0.1-0.8
		c0.4-0.2,0.6,0.2,0.8,0.4c2.1,2.1,3.6,4.7,5.1,7.2c3.8,6.4,5.9,13.2,5.9,20.7c-0.1,6.6-2,12.6-5.5,18.1c-2.7,4.3-6,8.2-8.2,12.8
		c-3.4,7.1-5.5,14.5-4.9,22.4c0.3,4.7,1.3,9.3,4.2,13.3c4.1,5.6,9.4,6.7,15.3,4.1c2.1-0.9,3.1-3.1,3.4-5.4c0.5-3-0.1-6-0.9-8.9
		c-1-3.6-2.5-6.9-3.9-10.3c-1.9-4.5-2.6-9.2-1.2-14c1.7-6,6.5-9.9,12.5-10.9c1.7-0.3,3.5,0,4.9,1c0.7,0.5,1.1,1,0,1.5
		c-5.4,2.2-7.3,6.7-7.6,12.1c-0.2,3.7,0.4,7.3,1.4,10.8c2,7,4.2,14,6.1,21.1c2.2,8.1,3.7,16.4,3.4,24.9c-0.4,9.9-3.7,18.6-10.4,26
		c-5.2,5.7-9.4,12.1-13.1,18.9c-4.3,7.9-7.5,16.1-9.8,24.7c-1,3.6-1.8,7.1-2.6,10.7c-0.2,1.1-0.7,1.6-1.8,1.7
		c-1.1,0.1-1.8-0.3-2.2-1.3c-1.2-2.8-2-5.9-3-8.8c-2.6-7.5-5.4-14.8-9.5-21.6c-2.9-4.9-6.6-9.1-11.5-12.2c-4.5-2.8-6.4-7.2-6.8-12.3
		c-0.5-5.3,0.4-10.5,2.2-15.5c0.2-0.5,0.2-1.2,0.9-1.2c0.6,0,0.6,0.7,0.7,1.2c1.2,3.8,2.7,7.5,4.8,10.9c1.3,2.2,2.7,4.5,5.3,5.5
		c1.7,0.6,3,0.1,4.2-1c1.3-1.2,1.1-2.6,0.5-3.9c-0.7-1.7-1.9-3.1-3-4.5c-2.5-3-5-5.9-7.3-9.1c-6-8.3-10.2-17.3-11-27.7
		c-0.5-6.5-1-13-2.4-19.4c-0.7-3.3-1.6-6.6-3.4-9.5c-2.4-4-5.9-5.9-10.6-5.3C15.8,186.9,15.1,187,14.1,186.5z" fill="white" stroke="black"/>
</g>
</svg>
